<svg xmlns="http://www.w3.org/2000/svg" width="24" height="24" viewBox="0 0 32 32" xml:space="preserve">
    <path d="M8.52 11.48c-.549 0-1 .451-1 1V15H6v-2.52c0-.549-.451-1-1-1s-1 .451-1 1v7.04a1 1 0 0 0 2 0V17h1.52v2.52a1 1 0 0 0 2 0v-7.04c0-.549-.451-1-1-1zM20.84 11.48h-3.52a1 1 0 0 0 0 2h.76v6.04a1 1 0 1 0 2 0v-6.04h.76a1 1 0 1 0 0-2zM14.68 11.48h-3.52a1 1 0 0 0 0 2h.76v6.04a1 1 0 0 0 2 0v-6.04h.76a1 1 0 0 0 0-2zM25.24 11.48h-1.76a1 1 0 0 0-1 1v7.04c0 .549.451 1 1 1s1-.451 1-1V17h.76c1.521 0 2.76-1.238 2.76-2.76s-1.238-2.76-2.76-2.76zm0 3.52h-.76v-1.52h.76a.76.76 0 0 1 0 1.52z" fill="currentColor"/>
    <path d="M27.536 27H4.464A3.468 3.468 0 0 1 1 23.536V8.464A3.468 3.468 0 0 1 4.464 5h23.072A3.468 3.468 0 0 1 31 8.464v15.072A3.468 3.468 0 0 1 27.536 27zM4.464 7C3.657 7 3 7.657 3 8.464v15.072C3 24.343 3.657 25 4.464 25h23.072c.808 0 1.464-.657 1.464-1.464V8.464C29 7.657 28.344 7 27.536 7z" fill="currentColor"/>
</svg>
