<svg xmlns="http://www.w3.org/2000/svg" width="24" height="24" x="0" y="0" viewBox="0 0 64 64">
    <path d="M59 22h-9.2c-.4 0-.8.4-.8.8v18.4c0 .4.4.8.8.8h2.4c.4 0 .8-.4.8-.8v-4.4c0-.4.4-.8.8-.8H59c1.1 0 2.1-.4 2.8-1.2.7-.7 1.2-1.8 1.2-2.8v-6c0-1.1-.4-2.1-1.2-2.8-.7-.8-1.7-1.2-2.8-1.2zm-6 9.2v-4.4c0-.4.4-.8.8-.8h4.4c.4 0 .8.4.8.8v4.4c0 .4-.4.8-.8.8h-4.4c-.4 0-.8-.4-.8-.8zM20.8 26h2.4c.4 0 .8.4.8.8v14.4c0 .4.4.8.8.8h2.4c.4 0 .8-.4.8-.8V26.8c0-.4.4-.8.8-.8h2.4c.4 0 .8-.4.8-.8v-2.4c0-.4-.4-.8-.8-.8H20.8c-.4 0-.8.4-.8.8v2.4c0 .4.4.8.8.8zM45.2 22H34.8c-.4 0-.8.4-.8.8v2.4c0 .4.4.8.8.8h2.4c.4 0 .8.4.8.8v14.4c0 .4.4.8.8.8h2.4c.4 0 .8-.4.8-.8V26.8c0-.4.4-.8.8-.8h2.4c.4 0 .8-.4.8-.8v-2.4c0-.4-.4-.8-.8-.8zM12 22.8v6.4c0 .4-.4.8-.8.8H6.8c-.4 0-.8-.4-.8-.8v-6.4c0-.4-.4-.8-.8-.8H2.8c-.4 0-.8.4-.8.8v18.4c0 .4.4.8.8.8h2.4c.4 0 .8-.4.8-.8v-6.4c0-.4.4-.8.8-.8h4.4c.4 0 .8.4.8.8v6.4c0 .4.4.8.8.8h2.4c.4 0 .8-.4.8-.8V22.8c0-.4-.4-.8-.8-.8h-2.4c-.4 0-.8.4-.8.8z"
          fill="currentColor"/>
</svg>
